 http://img535.imageshack.us/img535/134/posternk.jpg


[i][b]Aka: Fung wan II

Year: 2009
Directed: Oxide Pang Chun, Danny Pang
Genre: Action/Adventure/Fantasy
Runtime: 110 Min
Country: Hong Kong
Language: Cantonese
Subtitles: English
Cast: Aaron Kwok, Ekin Cheng, Kenny Ho, Nicholas Tse, Charlene Choi
Imdb: http://www.imdb.com/title/tt1186371/

Plot:

Japanese evil warlord Lord Godless desired to conquer China. He imprisoned a large number of martial artists and tried to make them subjugate. Among the prisoners were Cloud and the martial arts elder statesman Nameless. Wind came to the rescue. The trio was badly wounded by Lord Godlessâ™s evil martial arts attack. Chu Chu was also knocked out when she blocked Cloud from Lord Godlessâ™s strike. The remaining martial artists sacrificed their lives to save the trio, in the hope that the trio would beat Lord Godless one day and save the country. Chu Chu was badly wounded and stayed unconscious. Cloud was filled with remorse and vowed to take revenge. Wind chose to take the evil way to quickly boost up his martial arts skills, so that he could protect the people. During his training, he met the girl who changed his life, Dream. Meanwhile, the troop of Lord Godless came to attack. Windâ™s training was interrupted when he tried to save Dream from Lord Godlessâ™s assault. After some killings, Wind ran away and disappeared.... Lord Godless took The Emperor in captivity and stationed his troops in Heaven Cave. Cloud arrived alone and started a combat with Lord Godless. Lord Godless had the upper hand. In the meantime, the half-evil Wind appeared and joined the battle. During the fight, they inadvertently discovered the secret of the sovereign. The real intention of Lord Godlessâ™s invasion was related to an ancient tomb, a forbidden ground buried with the Royal familyâ™s secret. The truth was finally revealed. At last, how would the battle end? Who would eventually rule over the country?

General Info:
Complete name : The.Storm.Warriors.2009.DVDRip.H264.AAC-D34dLy.mp4
Format : MPEG-4
Format profile : Base Media
Codec ID : isom
File size : 351 MiB
Duration : 1h 50mn
Overall bit rate : 444 Kbps


Video Info:
ID : 1
Format : AVC
Format/Info : Advanced Video Codec
Format profile : High@L3.2
Format settings, CABAC : Yes
Format settings, ReFrames : 3 frames
Codec ID : avc1
Codec ID/Info : Advanced Video Coding
Duration : 1h 50mn
Bit rate mode : Variable
Bit rate : 395 Kbps
Maximum bit rate : 4 150 Kbps
Width : 608 pixels
Height : 272 pixels
Display aspect ratio : 2.25:1
Frame rate mode : Constant
Frame rate : 23.976 fps
Resolution : 8 bits
Colorimetry : 4:2:0
Scan type : Progressive
Bits/(Pixel*Frame) : 0.100
Stream size : 311 MiB (89%)
Title : Imported with GPAC 0.4.6-DEV (build 1)
Writing library : x264 core 80 r1376M 3feaec2


Audio Info:
ID : 2
Format : AAC
Format/Info : Advanced Audio Codec
Format version : Version 4
Format profile : LC
Format settings, SBR : Yes
Format settings, PS : No
Codec ID : 40
Duration : 1h 50mn
Bit rate mode : Variable
Bit rate : 48.0 Kbps
Maximum bit rate : 64.3 Kbps
Channel(s) : 2 channels
Channel positions : Front: L R
Sampling rate : 48.0 KHz
Stream size : 37.9 MiB (11%)




Screenshots:[/i][/b]
 
http://img694.imageshack.us/img694/1876/thestormwarriors2009dvds.jpg 
http://img96.imageshack.us/img96/220/aaaaalf.jpg 
http://img33.imageshack.us/img33/9149/aaaakqm.jpg 
http://img525.imageshack.us/img525/6663/aaany.jpg 
http://img291.imageshack.us/img291/3125/92708514.jpg 
http://img85.imageshack.us/img85/25/42745340.jpg


